<?xml version="1.0" encoding="UTF-8" standalone="no"?>
<svg
   xmlns:dc="http://purl.org/dc/elements/1.1/"
   xmlns:cc="http://creativecommons.org/ns#"
   xmlns:rdf="http://www.w3.org/1999/02/22-rdf-syntax-ns#"
   xmlns:svg="http://www.w3.org/2000/svg"
   xmlns="http://www.w3.org/2000/svg"
   xmlns:sodipodi="http://sodipodi.sourceforge.net/DTD/sodipodi-0.dtd"
   xmlns:inkscape="http://www.inkscape.org/namespaces/inkscape"
   sodipodi:docname="рисунок.svg"
   inkscape:version="1.0 (4035a4fb49, 2020-05-01)"
   inkscape:export-ydpi="3.357146"
   inkscape:export-xdpi="3.357146"
   inkscape:export-filename="C:\Users\Наталья\Desktop\ROMAN IL'ICHEV\Учёба\2 семестр\ОАиП\Курсовая\Images\Folder.png"
   id="svg8"
   version="1.1"
   viewBox="0 0 210 297"
   height="297mm"
   width="210mm">
  <defs
     id="defs2" />
  <sodipodi:namedview
     inkscape:window-maximized="1"
     inkscape:window-y="-8"
     inkscape:window-x="-8"
     inkscape:window-height="705"
     inkscape:window-width="1366"
     showgrid="false"
     inkscape:document-rotation="0"
     inkscape:current-layer="g929"
     inkscape:document-units="mm"
     inkscape:cy="821.17452"
     inkscape:cx="78.301929"
     inkscape:zoom="0.35"
     inkscape:pageshadow="2"
     inkscape:pageopacity="0.0"
     borderopacity="1.0"
     bordercolor="#666666"
     pagecolor="#ffffff"
     id="base" />
  <metadata
     id="metadata5">
    <rdf:RDF>
      <cc:Work
         rdf:about="">
        <dc:format>image/svg+xml</dc:format>
        <dc:type
           rdf:resource="http://purl.org/dc/dcmitype/StillImage" />
        <dc:title />
      </cc:Work>
    </rdf:RDF>
  </metadata>
  <g
     id="layer1"
     inkscape:groupmode="layer"
     inkscape:label="Слой 1">
    <g
       transform="translate(17.008929,-2.2678571)"
       id="g925">
      <g
         inkscape:export-ydpi="24.785229"
         inkscape:export-xdpi="24.785229"
         id="g929">
        <path
           inkscape:export-ydpi="7.4652758"
           inkscape:export-xdpi="7.4652758"
           id="path865"
           d="m 118.4717,257.80574 c -0.77749,-0.33763 -19.453916,-18.76638 -19.869056,-19.60557 -0.412572,-0.83399 -0.41214,-2.341 9.1e-4,-3.17607 0.442311,-0.89422 19.097726,-19.27329 19.905796,-19.61092 1.94959,-0.81459 4.36736,0.59802 4.56625,2.66786 0.18399,1.91484 0.44595,1.57179 -6.58559,8.62421 l -6.42555,6.44463 37.11112,0.0444 c 36.00041,0.0431 37.13084,0.0542 37.76981,0.37162 1.35649,0.67379 2.1035,2.36934 1.70321,3.86596 -0.27908,1.04345 -0.86742,1.81318 -1.70321,2.22833 -0.63897,0.31739 -1.7694,0.32851 -37.76981,0.37162 l -37.11112,0.0445 6.42555,6.44463 c 7.03154,7.05242 6.76958,6.70937 6.58559,8.62421 -0.19941,2.07525 -2.66742,3.50152 -4.6039,2.66059 z"
           style="fill:#2d0731;stroke-width:0.173042;fill-opacity:1" />
        <path
           id="path863"
           d="m 190.5565,80.120599 c -6.84989,-1.022614 -12.299,-6.035965 -14.19468,-13.059557 L 175.91981,65.42332 V 37.742181 10.061047 l 0.44201,-1.637722 c 1.72701,-6.3986109 6.17086,-10.9414804 12.43002,-12.7069325 l 1.60202,-0.4518656 h 27.07786 27.07787 l 1.60202,0.4518656 c 6.25917,1.7654521 10.70303,6.3083216 12.43003,12.7069325 l 0.44201,1.637722 V 37.742181 65.42332 l -0.44201,1.637722 c -1.72703,6.398695 -6.17191,10.942507 -12.43003,12.706681 l -1.60202,0.451614 -26.50865,0.02348 C 203.46116,80.255397 191.09316,80.200677 190.5565,80.1206 Z M 204.65661,65.81827 c 2.2639,-0.491046 4.05409,-2.150109 4.90598,-4.546538 0.12347,-0.347636 0.20502,-5.673173 0.2629,-17.204584 l 0.0838,-16.701102 11.05884,-1.951502 c 6.08236,-1.073326 11.33326,-1.999655 11.66868,-2.058542 l 0.60986,-0.107122 v 12.234204 12.234229 h -3.08195 c -1.69508,0 -3.46977,0.08406 -3.94378,0.186993 -3.38376,0.733949 -5.64678,4.138255 -5.02907,7.565307 0.49161,2.727483 2.4341,4.798203 5.02907,5.36107 1.11461,0.241771 5.61853,0.241771 6.73313,0 2.48854,-0.539786 4.46063,-2.555813 4.98865,-5.099782 0.1304,-0.628 0.1828,-7.468603 0.1828,-23.818929 V 8.9740749 l -0.36589,0.086579 c -0.54134,0.1280862 -32.46274,5.7385781 -32.65032,5.7385781 -0.1044,0 -0.16016,6.616127 -0.16016,18.952863 v 18.952846 h -3.08195 c -1.69508,0 -3.46978,0.08406 -3.94378,0.186994 -3.38376,0.733949 -5.64678,4.138255 -5.02907,7.565307 0.47897,2.657423 2.31184,4.678984 4.81778,5.313755 1.0375,0.262797 5.80132,0.29527 6.94441,0.04738 z"
           style="fill:#2d0731;fill-opacity:1;stroke-width:0.164499;stroke-miterlimit:4;stroke-dasharray:none"
           inkscape:export-xdpi="1.6552348"
           inkscape:export-ydpi="1.6552348" />
        <g
           id="g939"
           inkscape:export-xdpi="1.9263884"
           inkscape:export-ydpi="1.9263884"
           transform="matrix(0.81272972,0,0,0.81272972,61.65379,-102.1297)">
          <path
             inkscape:export-ydpi="1.996356"
             inkscape:export-xdpi="1.996356"
             style="opacity:0.998;fill:#2d0731;fill-opacity:1;stroke:#2d0731;stroke-width:4.77022;stroke-linecap:butt;stroke-linejoin:miter;stroke-miterlimit:4;stroke-dasharray:none;stroke-opacity:1"
             d="m 36.971633,192.8557 -0.0472,0.89769 v 0.68509 l 0.16537,0.99219 0.33073,1.08668 0.44884,1.18117 c 0,0 0.73233,1.01581 0.75595,1.13393 0.0236,0.11812 0.92132,1.01581 0.92132,1.01581 l 0.77958,0.63784 0.85596,0.53391 c 0,0 0.67235,0.33826 0.79763,0.38002 0.12528,0.0418 0.68488,0.22551 0.68488,0.22551 l 0.78093,0.1921 c 0,0 0.63476,0.0752 0.79345,0.0752 0.1587,0 0.84357,0.0334 0.84357,0.0334 l 1.47834,0.0501 2.6894,-0.008 1.35305,-0.0585 c 0,0 0.9605,-0.12286 0.9605,-0.12291 0,-5e-5 0.5763,-0.16941 0.5763,-0.16941 0,0 0.70993,-0.20881 0.77675,-0.24222 0.0668,-0.0334 0.62642,-0.30903 0.69323,-0.34244 0.0668,-0.0334 0.45937,-0.29232 0.45937,-0.29232 l 0.5596,-0.3675 0.55959,-0.45101 0.61807,-0.60971 0.25891,-0.33409 0.48443,-0.65147 c 0,0 0.49278,-0.79345 0.50113,-0.82686 0.008,-0.0334 0.24221,-0.46773 0.24221,-0.50114 0,-0.0334 0.1921,-0.52618 0.1921,-0.52618 l 0.15869,-0.37585 0.39719,-41.72764 28.77874,-5.07705 v 30.17351 l -2.29443,-0.004 -2.4096,-0.0236 -2.17336,0.0945 -1.53553,0.14173 -0.50899,0.0858 -0.56795,0.16705 -0.41761,0.15034 -0.50113,0.21716 -0.40925,0.2255 -0.55125,0.32574 -0.37584,0.28397 -0.44267,0.37585 -0.45102,0.40926 -0.26727,0.28397 -0.35079,0.42596 -0.30903,0.41761 -0.29232,0.45102 -0.26727,0.50948 -0.21716,0.45937 -0.25057,0.66817 -0.16704,0.56795 -0.13363,0.71829 -0.0668,0.58465 -0.0418,0.45102 0.0167,0.56794 0.0585,0.58466 0.10858,0.65982 0.13363,0.53454 0.0835,0.30903 0.2088,0.5763 0.25057,0.593 0.25891,0.49278 0.29233,0.46772 0.52618,0.70994 0.47608,0.53453 0.48443,0.46773 0.4009,0.30903 0.68488,0.45101 0.61806,0.34244 0.47607,0.18375 c 0,0 0.62642,0.24221 0.68488,0.25892 0.0585,0.0167 0.86027,0.18375 0.86027,0.18375 l 0.7684,0.0752 3.509,0.11373 c 0,0 1.87806,-0.0827 1.99618,-0.0827 0.11812,0 1.2048,-0.0591 1.2048,-0.0591 l 1.39379,-0.33073 1.06306,-0.43703 1.18117,-0.76776 0.94494,-0.80321 c 0,0 0.72052,-0.94494 0.8032,-0.99218 0.0827,-0.0473 0.53153,-0.86226 0.53153,-0.86226 l 0.44885,-1.02762 0.35435,-1.19299 0.19621,-57.62367 -1.67268,0.33665 -2.10249,0.4016 -7.34691,1.27567 -13.60715,2.38598 -11.52827,2.03162 -4.42226,0.74729 -0.0418,0.008 -0.0418,0.53454 -0.0418,1.20271 v 0.61806 l -0.0668,4.35148 -0.0167,8.10161 -0.0167,5.52914 -0.007,26.40252 -3.35985,0.005 -2.94774,0.0185 -1.35305,0.11693 -0.98556,0.0835 -0.85192,0.25057 -0.83522,0.35079 -0.7684,0.43432 -0.48025,0.28814 c 0,0 -0.54707,0.45102 -0.56377,0.45937 -0.0167,0.008 -0.68488,0.68071 -0.68488,0.68071 l -0.63476,0.79345 -0.3675,0.55125 -0.4886,0.97302 -0.25891,0.71412 -0.13781,0.43013 -0.14616,0.65147 z"
             id="path921" />
          <rect
             y="129.08888"
             x="34.205708"
             height="75.476166"
             width="75.476166"
             id="rect935"
             style="opacity:0.998;fill:none;fill-opacity:1;stroke:none;stroke-width:4.77023;stroke-linejoin:round;stroke-miterlimit:4;stroke-dasharray:none;stroke-opacity:1" />
        </g>
        <path
           inkscape:export-ydpi="4.5055399"
           inkscape:export-xdpi="4.5055399"
           style="fill:#2d0731;fill-opacity:1;stroke-width:0.0889627"
           d="m 16.468761,122.02124 c -0.28699,-0.16734 -2.02298,-1.84001 -4.89263,-4.71419 l -4.4478026,-4.45483 -2.446813,-6.7e-4 c -1.345747,-3.3e-4 -2.707027,-0.0424 -3.025064,-0.0936 -0.78075297,-0.1255 -1.41449897,-0.43 -1.96640997,-0.94478 -0.562167,-0.52434 -0.81854903,-0.91802 -1.05502503,-1.61999 -0.175582,-0.52121 -0.181228,-0.73492 -0.181228,-6.85994 0,-6.125034 0.0056,-6.338744 0.181228,-6.859954 0.236476,-0.70197 0.49285803,-1.09564 1.05502503,-1.61998 0.551911,-0.51479 1.185657,-0.81928 1.96640997,-0.94479 0.318037,-0.0511 1.678648,-0.0933 3.023578,-0.0936 l 2.445327,-6.7e-4 4.5382646,-4.52826 c 2.99664,-2.99004 4.66548,-4.5917 4.9128,-4.71502 0.88042,-0.43904 1.98268,-0.0919 2.45316,0.7725 l 0.2415,0.44372 -6.7e-4,17.558124 -6.7e-4,17.55812 -0.25695,0.44796 c -0.51992,0.90644 -1.63462,1.20001 -2.54371,0.66993 z m 12.17095,-4.94623 c -0.78137,-0.38937 -1.18361,-1.22134 -1.00136,-2.07115 0.081,-0.37765 0.22637,-0.59467 0.94468,-1.41019 2.04917,-2.32656 3.26365,-4.78972 3.77916,-7.66474 0.14239,-0.79411 0.18628,-1.40569 0.18628,-2.59574 0,-1.19004 -0.0439,-1.80162 -0.18628,-2.59572 -0.51551,-2.875034 -1.72999,-5.338194 -3.77916,-7.664744 -0.71831,-0.81553 -0.86368,-1.03254 -0.94468,-1.4102 -0.18225,-0.8498 0.21999,-1.68178 1.00136,-2.07115 0.49806,-0.24819 0.87526,-0.27976 1.43004,-0.1197 0.44663,0.12887 1.40168,1.05732 2.34831,2.28295 5.26203,6.81282 5.26203,16.344314 0,23.157134 -0.94663,1.22563 -1.90168,2.15408 -2.34831,2.28295 -0.55478,0.16007 -0.93198,0.12849 -1.43004,-0.1197 z m -4.96479,-5.21374 c -0.54055,-0.12613 -0.98909,-0.48483 -1.24271,-0.99376 -0.40904,-0.82084 -0.26693,-1.47702 0.51031,-2.3564 0.74293,-0.84056 1.32831,-1.83386 1.6756,-2.84322 0.29128,-0.84656 0.29825,-0.90109 0.29825,-2.3347 0,-1.43359 -0.007,-1.48813 -0.29825,-2.33469 -0.34783,-1.010964 -0.93282,-2.002824 -1.67941,-2.847544 -0.81525,-0.92238 -0.936,-1.68004 -0.40471,-2.53938 0.48143,-0.7787 1.57189,-1.07903 2.39435,-0.65943 0.72877,0.37178 1.94586,1.90427 2.65195,3.33917 0.84929,1.725924 1.16038,3.077644 1.16038,5.041874 0,0.98527 -0.0455,1.59481 -0.15948,2.13511 -0.44865,2.12724 -1.40747,4.02713 -2.78118,5.5109 -0.74333,0.80289 -1.36269,1.05997 -2.1251,0.88207 z"
           id="path955" />
        <path
           inkscape:export-ydpi="8.2852802"
           inkscape:export-xdpi="8.2852802"
           id="path982"
           d="m 138.89382,173.3976 c -0.20153,-0.0867 -5.20354,-3.97316 -11.1156,-8.63658 l -10.7492,-8.47894 h -5.24567 c -5.54814,0 -5.99972,-0.0371 -7.06713,-0.58115 -0.69939,-0.35646 -1.46427,-1.18366 -1.87062,-2.02306 l -0.37248,-0.76942 v -9.64991 -9.6499 l 0.39232,-0.78723 c 0.49253,-0.98829 1.44074,-1.87494 2.37397,-2.21987 0.3847,-0.14219 1.12638,-0.27919 1.74705,-0.32271 l 1.07854,-0.0756 -7.0666,-6.99516 c -7.586803,-7.51011 -7.449261,-7.35156 -7.280729,-8.39273 0.157591,-0.97354 0.843131,-1.65075 1.82864,-1.80644 1.099869,-0.17373 -0.765122,-1.94209 30.264339,28.69615 23.58023,23.28293 28.88509,28.57744 29.04385,28.9872 0.51214,1.32178 -0.57389,2.87872 -2.00172,2.8697 -0.8631,-0.006 -1.27218,-0.34964 -6.10277,-5.13451 -2.60295,-2.57832 -4.77333,-4.68784 -4.82307,-4.68784 -0.0497,0 -0.0904,1.83986 -0.0904,4.08858 0,3.77846 -0.0172,4.12189 -0.22691,4.52776 -0.28027,0.54247 -0.55248,0.79159 -1.12169,1.02653 -0.53529,0.22094 -1.10327,0.22635 -1.59409,0.0152 z m -8.54817,-33.37934 -11.43094,-11.29263 3.22274,-2.53454 c 1.77251,-1.39399 6.18803,-4.86998 9.81225,-7.72443 3.62422,-2.85445 6.76347,-5.2617 6.97611,-5.34947 0.5069,-0.20922 1.01855,-0.20185 1.5621,0.0225 0.56939,0.23502 0.84142,0.48406 1.12206,1.02726 0.22066,0.42709 0.2264,0.97468 0.19695,18.79192 l -0.0303,18.35201 z"
           style="fill:#2d0731;fill-opacity:1;stroke-width:0.119108;stroke-miterlimit:4;stroke-dasharray:none" />
        <path
           style="fill:#2d0731;fill-opacity:1;stroke-width:0.133916"
           d="m -29.345829,168.24589 c -1.24625,-0.39358 -2.03369,-1.03008 -2.62042,-2.11813 -0.4151,-0.76979 -0.45462,-0.94201 -0.45462,-1.98136 0,-1.03954 0.0395,-1.21148 0.45504,-1.98213 0.50508,-0.93666 0.92169,-1.34021 1.93603,-1.87536 l 0.68397,-0.36085 h 28.99277 28.99277 l 0.84307,0.45713 c 1.46383,0.79373 2.23018,2.08435 2.23334,3.76121 0.003,1.7314 -0.88613,3.1284 -2.46221,3.86752 l -0.74812,0.35083 -28.65798,0.0251 c -22.77059,0.02 -28.76802,-0.01 -29.19364,-0.14401 z m 0,-21.42653 c -1.24625,-0.39357 -2.03369,-1.03007 -2.62042,-2.11812 -0.4151,-0.7698 -0.45462,-0.94202 -0.45462,-1.98136 0,-1.03955 0.0395,-1.21148 0.45504,-1.98214 0.50508,-0.93666 0.92169,-1.3402 1.93603,-1.87536 l 0.68397,-0.36085 h 28.99277 28.99277 l 0.84307,0.45714 c 1.46383,0.79373 2.23018,2.08435 2.23334,3.76121 0.003,1.73139 -0.88613,3.1284 -2.46221,3.86751 l -0.74812,0.35084 -28.65798,0.0251 c -22.77059,0.02 -28.76802,-0.01 -29.19364,-0.14402 z m 0,-21.42652 c -1.24625,-0.39358 -2.03369,-1.03008 -2.62042,-2.11813 -0.4151,-0.76979 -0.45462,-0.94201 -0.45462,-1.98136 0,-1.03954 0.0395,-1.21148 0.45504,-1.98213 0.50508,-0.93666 0.92169,-1.34021 1.93603,-1.87536 l 0.68397,-0.36085 h 28.99277 28.99277 l 0.84307,0.45713 c 1.46383,0.79373 2.23018,2.08435 2.23334,3.76121 0.003,1.7314 -0.88613,3.1284 -2.46221,3.86752 l -0.74812,0.35083 -28.65798,0.0251 c -22.77059,0.02 -28.76802,-0.01 -29.19364,-0.14401 z"
           id="path855"
           inkscape:export-xdpi="7.9205456"
           inkscape:export-ydpi="7.9205456" />
        <path
           style="fill:#2d0731;fill-opacity:1;stroke-width:0.11546"
           d="m 244.74774,193.05422 c -0.4136,-0.20702 -1.47644,-1.19217 -3.85386,-3.57216 l -3.28275,-3.2863 -0.32311,0.23007 c -0.6523,0.46449 -2.54561,1.27638 -3.64395,1.56261 -1.6673,0.4345 -4.03295,0.50163 -5.68061,0.16118 -3.64888,-0.75394 -6.63338,-2.82593 -8.55995,-5.94274 -2.75984,-4.46487 -2.48722,-10.25364 0.68074,-14.45442 3.27822,-4.34699 8.80172,-6.17304 14.04737,-4.64401 1.88915,0.55066 3.89645,1.74996 5.36146,3.20332 1.96154,1.94594 3.11346,4.15742 3.6517,7.01056 0.27654,1.46593 0.17857,3.84878 -0.22146,5.38636 -0.28564,1.09795 -1.09718,2.99102 -1.56211,3.64395 l -0.23007,0.32311 3.2863,3.28275 c 3.41442,3.41074 3.85802,3.96516 3.85802,4.82187 0,1.41989 -1.13982,2.55971 -2.55971,2.55971 -0.2183,0 -0.6539,-0.12864 -0.96801,-0.28586 z m -12.3208,-9.82301 c 2.06639,-0.52019 4.1396,-2.18862 5.08562,-4.0927 0.64837,-1.30497 0.86984,-2.22412 0.87635,-3.63698 0.007,-1.4283 -0.15599,-2.13418 -0.79775,-3.4638 -1.29715,-2.68748 -3.75935,-4.35417 -6.69079,-4.52906 -4.77902,-0.28512 -8.74144,3.6773 -8.45632,8.45632 0.1954,3.2752 2.38252,6.08617 5.56506,7.15244 1.27007,0.42552 3.00225,0.47013 4.41783,0.11378 z m -38.16343,2.48596 c -1.22552,-0.32107 -2.15895,-0.86186 -3.08357,-1.78647 -0.93875,-0.93875 -1.46808,-1.86312 -1.79187,-3.1291 -0.22279,-0.87111 -0.22808,-1.35188 -0.22808,-20.71397 0,-19.3621 0.005,-19.84286 0.22808,-20.71397 0.12545,-0.49049 0.39796,-1.21321 0.60557,-1.60604 0.53737,-1.01677 1.79572,-2.2438 2.83349,-2.76298 1.65682,-0.82888 0.78098,-0.79138 17.63521,-0.75497 l 15.12525,0.0327 0.86334,0.31508 c 2.11029,0.77015 3.59362,2.33786 4.34483,4.59197 0.19647,0.58954 0.21432,1.27272 0.24917,9.53715 l 0.0375,8.90212 -1.65058,0.0707 c -6.41457,0.27471 -12.30015,4.19612 -15.09734,10.05897 -1.17335,2.45932 -1.61298,4.31294 -1.69956,7.16591 -0.0541,1.78338 -0.0285,2.28096 0.18099,3.50667 0.39671,2.32192 1.34012,4.77199 2.53985,6.59607 0.22972,0.34927 0.45921,0.69998 0.51,0.77936 0.0736,0.11509 -2.01939,0.14303 -10.33367,0.13796 -9.88375,-0.006 -10.46981,-0.0179 -11.26865,-0.22712 z m 18.16165,-17.27633 c 0.88993,-0.47893 1.32779,-1.21587 1.32779,-2.23473 0,-1.01916 -0.74441,-2.02984 -1.70112,-2.3096 -0.30098,-0.088 -2.49956,-0.11628 -7.14011,-0.0918 l -6.70522,0.0354 -0.48117,0.3185 c -1.76362,1.16738 -1.45229,3.70925 0.54272,4.43112 0.32882,0.11898 1.82604,0.14558 7.05632,0.12536 6.55143,-0.0253 6.64504,-0.0289 7.10079,-0.27421 z m 9.72963,-9.80197 c 1.95015,-0.81482 1.95015,-3.67709 0,-4.49192 -0.37646,-0.15729 -1.82559,-0.1787 -12.09745,-0.1787 -11.25647,0 -11.68493,0.008 -12.09813,0.22035 -1.88059,0.96733 -1.86194,3.43997 0.0335,4.43744 0.30878,0.1625 1.61547,0.18278 12.0404,0.1869 10.30076,0.004 11.74498,-0.0167 12.12171,-0.17407 z m -12.00237,-10.01162 c 0.69242,-0.45836 1.06867,-1.08456 1.1395,-1.89641 0.0808,-0.92593 -0.35885,-1.78351 -1.17201,-2.28625 l -0.56314,-0.34816 h -5.60886 -5.60886 l -0.54537,0.32058 c -0.96214,0.56558 -1.42989,1.73638 -1.13349,2.83716 0.16223,0.60246 0.96578,1.45555 1.52598,1.62005 0.23068,0.0677 2.59826,0.10449 5.93446,0.0921 l 5.55066,-0.0206 z"
           id="path871"
           inkscape:export-xdpi="11.171354"
           inkscape:export-ydpi="11.171354" />
        <g
           id="g915"
           inkscape:export-xdpi="8.1167374"
           inkscape:export-ydpi="8.1167374"
           transform="matrix(0.77453508,0,0,0.77453508,-78.801669,11.793617)">
          <path
             id="path909"
             d="m 89.762862,277.28053 c -3.44486,-0.83412 -6.348586,-3.53901 -7.492248,-6.97921 -0.466469,-1.40317 -0.476689,-1.53528 -0.54898,-7.09735 l -0.07366,-5.66758 -8.070344,-0.0515 -8.070348,-0.0515 -1.201606,-0.56923 c -1.670463,-0.79133 -2.858841,-1.95804 -3.672886,-3.60591 -0.647844,-1.31143 -0.665826,-1.40144 -0.663723,-3.32253 0.002,-1.87728 0.03192,-2.0357 0.606081,-3.21471 0.664035,-1.36356 1.829276,-2.64513 3.061477,-3.36711 1.823193,-1.06825 0.54423,-1.0225 28.589557,-1.0225 28.045338,0 26.766368,-0.0457 28.589568,1.0225 1.2322,0.72198 2.39744,2.00355 3.06148,3.36711 0.57415,1.17901 0.60402,1.33743 0.60608,3.21471 0.002,1.92109 -0.0159,2.0111 -0.66373,3.32253 -0.81404,1.64787 -2.00242,2.81458 -3.67288,3.60591 l -1.20161,0.56923 -8.07035,0.0515 -8.07034,0.0515 -0.0737,5.66758 c -0.0723,5.56207 -0.0825,5.69418 -0.54898,7.09735 -1.46992,4.42161 -5.420048,7.261 -10.044928,7.22039 -0.78638,-0.007 -1.85467,-0.11544 -2.37397,-0.24118 z M 62.737093,221.63718 c 0,-18.58741 -0.03828,-17.87486 1.084115,-20.18178 0.783538,-1.61045 1.945042,-2.93812 3.452419,-3.94632 2.187803,-1.46328 3.054443,-1.68967 6.812953,-1.77967 3.591006,-0.086 4.650131,0.0826 6.553084,1.04323 l 1.041941,0.52597 0.0014,6.38673 c 5.34e-4,3.76617 0.07537,6.65451 0.182259,7.03934 0.246917,0.88896 1.357622,1.86582 2.30309,2.02555 0.950288,0.16056 2.251678,-0.44614 2.830368,-1.3195 0.39923,-0.60264 0.4023,-0.65817 0.4023,-7.27074 v -6.66346 l 0.52377,-0.37297 c 0.28808,-0.20512 1.07222,-0.59261 1.74254,-0.86109 l 1.21877,-0.48814 10.871998,-0.0513 c 11.90606,-0.0561 11.86267,-0.0592 14.14905,1.01303 2.27535,1.06709 4.33595,3.38108 5.29346,5.94439 l 0.42446,1.13632 0.0495,17.3807 0.0495,17.38069 H 92.230732 62.737363 Z"
             style="fill:#2d0731;fill-opacity:1;stroke-width:0.178722" />
          <rect
             y="191.25595"
             x="44.97916"
             height="93.738091"
             width="93.738091"
             id="rect911"
             style="opacity:0.998;fill:none;fill-opacity:1;stroke:#e2cee4;stroke-width:0.142;stroke-linejoin:round" />
        </g>
        <path
           inkscape:export-ydpi="11.737934"
           inkscape:export-xdpi="11.737934"
           style="fill:#2d0731;fill-opacity:1;stroke-width:0.160239"
           d="m -41.020144,274.66177 c 0.167061,-0.2644 3.591912,-3.76133 7.610775,-7.77097 4.018872,-4.00963 7.307039,-7.34199 7.307039,-7.40523 0,-0.0632 -2.565081,-0.13566 -5.700175,-0.16091 l -5.700166,-0.0459 -0.618744,-0.66351 c -0.71464,-0.76633 -0.928514,-1.56088 -0.660746,-2.45461 0.198425,-0.66232 0.854217,-1.40702 1.433426,-1.62779 0.204033,-0.0778 4.429701,-0.1414 9.390383,-0.1414 h 9.019413 l 0.544475,0.36183 c 0.299455,0.199 0.708594,0.68572 0.909183,1.0816 l 0.364708,0.7198 -0.04422,8.81318 -0.04422,8.81318 -0.366587,0.58953 c -0.491968,0.79118 -1.586062,1.32367 -2.474804,1.20447 -0.762487,-0.10228 -1.338773,-0.48682 -1.845621,-1.23153 -0.356973,-0.52451 -0.360541,-0.58529 -0.360541,-6.15224 v -5.62249 l -7.651439,7.63927 c -5.217129,5.20884 -7.79467,7.67422 -8.101632,7.74907 -0.697908,0.17021 -1.794888,-0.0123 -2.319614,-0.38596 -0.958076,-0.68221 -1.303974,-2.33912 -0.690877,-3.3094 z M -8.9166315,226.0274 c 0.788301,-1.15825 1.854649,-1.51817 3.094784,-1.04455 0.512835,0.19585 0.856095,0.47113 1.160255,0.93053 l 0.43198,0.65241 0.0479,5.52854 0.0481,5.52855 7.64349,-7.62753 c 8.2780005,-8.26069 7.9737005,-8.01125 9.4382805,-7.73649 0.78879,0.14798 1.74729,1.10648 1.89527,1.89528 0.26899,1.43384 0.48656,1.16537 -7.6395005,9.42674 l -7.5296,7.65497 5.41905,0.048 c 5.4050005,0.0479 5.4206505,0.049 6.0388505,0.43334 1.52758,0.94959 1.61649,3.17791 0.1708,4.28058 l -0.60543,0.46179 H 1.5231575 c -9.057854,0 -9.180191,-0.005 -9.626845,-0.33522 -0.248835,-0.18435 -0.614662,-0.57359 -0.812955,-0.86495 l -0.360541,-0.52974 v -9.08627 -9.08627 z"
           id="path931" />
      </g>
    </g>
    <g
       inkscape:export-ydpi="3.5771866"
       inkscape:export-xdpi="3.5771866"
       id="g961">
      <path
         style="fill:#2d0731;fill-opacity:1;stroke:#e2cee4;stroke-width:12;stroke-linecap:butt;stroke-linejoin:miter;stroke-miterlimit:4;stroke-dasharray:none;stroke-opacity:1"
         d="m 12.721729,31.231709 v 31.472465 l 0.0759,0.905029 0.03795,0.221637 0.151793,0.387867 0.132822,0.313978 0.189742,0.443273 0.13282,0.203176 0.113845,0.240104 0.265641,0.406328 0.26564,0.387876 0.379486,0.424804 0.322562,0.350923 0.284616,0.240104 0.284615,0.221637 0.455382,0.350922 0.39846,0.221645 0.531281,0.277041 0.92974,0.313986 0.569229,0.1847 0.417435,0.0554 0.626152,0.07389 63.867495,-0.0369 c 0,0 0.98666,-0.0554 1.29025,-0.147755 0.30359,-0.09235 0.89179,-0.295517 1.11947,-0.369399 0.22769,-0.07389 0.89181,-0.480209 1.04359,-0.572567 0.15179,-0.09234 0.72102,-0.591019 0.72102,-0.591019 l 0.64513,-0.554099 0.60718,-0.775735 0.5123,-0.94195 0.36051,-0.812672 0.17077,-0.646448 0.0379,-0.701846 0.006,-38.00214 c 0,0 -0.17442,-0.731367 -0.18784,-0.79667 -0.0134,-0.06529 -0.13417,-0.483223 -0.17442,-0.548519 -0.0403,-0.0653 -0.28175,-0.653006 -0.28175,-0.653006 l -0.25492,-0.483223 -0.322,-0.522408 -0.42935,-0.53546 -0.37567,-0.365684 -0.44276,-0.339559 -0.45617,-0.352624 -0.63059,-0.378743 -0.50985,-0.261204 -0.49641,-0.182842 -0.67085,-0.169783 -0.59033,-0.117539 -0.45618,-0.0653 -0.483,-0.05226 -31.180776,0.05226 -6.305919,-7.261411 -0.228085,-0.182842 -0.241503,-0.05224 -0.684254,-0.01305 c 0,0 -25.009027,-0.02609 -25.062694,-0.01305 -0.05367,0.01305 -0.818429,0.0653 -0.818429,0.0653 l -0.576925,0.130603 -0.670841,0.195901 -0.442757,0.169789 -0.576925,0.300381 -0.46959,0.261197 -0.402505,0.365683 -0.362255,0.313441 -0.281754,0.326506 -0.335422,0.404862 -0.456173,0.574644 -0.228088,0.496283 -0.375671,0.705242 -0.161003,0.522401 -0.214669,0.457112 -0.06708,0.5224 z"
         id="path847"
         inkscape:export-xdpi="4.088213"
         inkscape:export-ydpi="4.088213" />
      <rect
         inkscape:export-ydpi="4.088213"
         inkscape:export-xdpi="4.088213"
         style="opacity:0.998;fill:none;fill-opacity:1;stroke:none;stroke-width:0.04959518;stroke-linejoin:round;stroke-miterlimit:4;stroke-dasharray:none;stroke-opacity:1"
         id="rect957"
         width="99.407738"
         height="99.407738"
         x="1.5119047"
         y="-11.339286" />
    </g>
  </g>
</svg>
